<svg width="19" height="14" viewBox="0 0 19 14" fill="none" xmlns="http://www.w3.org/2000/svg">
<path fill-rule="evenodd" clip-rule="evenodd" d="M0.74707 7.00016C0.74707 8.36633 1.11891 8.82641 1.8626 9.74658C3.34754 11.5838 5.83792 13.6668 9.49707 13.6668C13.1562 13.6668 15.6466 11.5838 17.1315 9.74658C17.8752 8.82641 18.2471 8.36633 18.2471 7.00016C18.2471 5.634 17.8752 5.17394 17.1315 4.25377C15.6466 2.41646 13.1562 0.333496 9.49707 0.333496C5.83792 0.333496 3.34754 2.41646 1.8626 4.25377C1.11891 5.17394 0.74707 5.634 0.74707 7.00016ZM9.49707 3.87516C7.68488 3.87516 6.21582 5.27427 6.21582 7.00016C6.21582 8.72608 7.68488 10.1252 9.49707 10.1252C11.3093 10.1252 12.7783 8.72608 12.7783 7.00016C12.7783 5.27427 11.3093 3.87516 9.49707 3.87516Z" fill="black"/>
</svg>
