<svg width="29" height="29" viewBox="0 0 29 29" fill="none" xmlns="http://www.w3.org/2000/svg">
<path d="M14.4998 0.549805V3.6498C16.6457 3.6498 18.7435 4.28615 20.5277 5.47836C22.312 6.67057 23.7027 8.36511 24.5239 10.3477C25.3451 12.3303 25.56 14.5118 25.1413 16.6165C24.7227 18.7212 23.6893 20.6545 22.1719 22.1719C20.6545 23.6893 18.7212 24.7227 16.6165 25.1413C14.5118 25.56 12.3303 25.3451 10.3477 24.5239C8.36511 23.7027 6.67057 22.312 5.47836 20.5277C4.28615 18.7435 3.6498 16.6457 3.6498 14.4998H0.549805C0.549805 17.2589 1.36796 19.9559 2.9008 22.25C4.43365 24.5441 6.61234 26.3321 9.16137 27.3879C11.7104 28.4438 14.5153 28.72 17.2213 28.1818C19.9274 27.6435 22.413 26.3149 24.3639 24.3639C26.3149 22.413 27.6435 19.9274 28.1818 17.2213C28.72 14.5153 28.4438 11.7104 27.3879 9.16137C26.3321 6.61234 24.5441 4.43365 22.25 2.9008C19.9559 1.36796 17.2589 0.549805 14.4998 0.549805Z" fill="#FF0024"/>
</svg>
